# xmcd
# 
# Track frame offsets:
#     150
#     8457
#     31290
#     65492
#     85372
#     99080
#     111420
#     128332
#     143345
#     150047
# 
# Disc length: 2200
# 
# Revision: 2
# Processed by: cddbd v1.5.2PL0 Copyright (c) Steve Scherf et al.
# Submitted via: BonkEnc v1.0.15
# 
DISCID=6208960a
DTITLE=Andreas Vollenweider - White Winds (MK_39963)
DYEAR=1985
DGENRE=New Age
TTITLE0=The White Winds/The White Boat (First View)
TTITLE1=Hall of the Stars/Hall of the Mosaics (Meeting You)
TTITLE2=The Glass Hall (Choose the Crystal)/The Play of the Five Balls/The Five Planets/Canopy Choir
TTITLE3=The Woman and the Stone
TTITLE4=The Stone (Close-Up)
TTITLE5=Phases of the Three Moons
TTITLE6=Flight Feet and Root Hands
TTITLE7=Brothership
TTITLE8=Sisterseed
TTITLE9=Trilogy (At the White Magic Gardens)/The White Winds
EXTD=YEAR: 1985
EXTT0=
EXTT1=
EXTT2=
EXTT3=
EXTT4=
EXTT5=
EXTT6=
EXTT7=
EXTT8=
EXTT9=
PLAYORDER=
